<svg width="40" height="40" viewBox="0 0 40 40" fill="none" xmlns="http://www.w3.org/2000/svg">
<rect width="40" height="40" rx="20" fill="#FFA23A"/>
<path d="M30 15.2264V16.4642C29.9566 16.8225 29.8697 17.1808 29.7503 17.5174C29.5331 18.1363 29.1965 18.7009 28.7622 19.1786H25.038C25.6352 19.1786 26.1889 19.0266 26.6667 18.7552C27.1878 18.462 27.6222 18.0277 27.9262 17.5174C28.1325 17.1699 28.2736 16.779 28.3388 16.3664C28.3605 16.1927 28.3822 16.0299 28.3822 15.8561C28.3822 15.6824 28.3713 15.5087 28.3388 15.3458C28.2736 14.9332 28.1325 14.5423 27.9262 14.1949C27.6222 13.6737 27.1878 13.2503 26.6667 12.9571C26.1889 12.6857 25.6352 12.5337 25.038 12.5337H10V10.8398H25.0054C25.0163 10.8398 25.0271 10.8398 25.038 10.8398C25.6026 10.8398 26.1564 10.9376 26.6667 11.1113C27.2856 11.3284 27.8502 11.6542 28.3279 12.0776C28.4799 12.2079 28.6211 12.3491 28.7622 12.5011C29.1965 12.9788 29.5331 13.5434 29.7503 14.1623C29.8697 14.5098 29.9566 14.8572 30 15.2264Z" fill="#212121"/>
<path d="M30 23.5541V24.7918C29.9566 25.161 29.8697 25.5085 29.7503 25.845C29.5331 26.4639 29.1965 27.0285 28.7622 27.5063C28.6319 27.6583 28.4799 27.7994 28.3279 27.9297C27.8502 28.3532 27.2856 28.6898 26.6667 28.8961C26.1564 29.0698 25.6026 29.1675 25.038 29.1675C25.0271 29.1675 25.0163 29.1675 25.0054 29.1675H10V27.5063H25.038C25.6352 27.5063 26.1889 27.3543 26.6667 27.0828C27.1878 26.7897 27.6222 26.3554 27.9262 25.845C28.1325 25.4976 28.2736 25.1067 28.3388 24.6941C28.3605 24.5204 28.3822 24.3575 28.3822 24.1838C28.3822 24.0101 28.3713 23.8364 28.3388 23.6735C28.2736 23.2609 28.1325 22.87 27.9262 22.5226C27.6222 22.0014 27.1878 21.5779 26.6667 21.2848C26.1889 21.0133 25.6352 20.8613 25.038 20.8613H28.7622C29.1965 21.3391 29.5331 21.9037 29.7503 22.5226C29.8697 22.8374 29.9566 23.1957 30 23.5541Z" fill="#212121"/>
<path d="M24.2236 23.4527C24.2236 23.735 24.1802 23.9956 24.0933 24.2453C23.9847 24.5602 23.8219 24.8425 23.6047 25.0922C23.5178 25.1899 23.431 25.2768 23.3333 25.3528C23.0075 25.6351 22.66 25.903 22.1498 25.9065C22.1413 25.9066 22.1389 25.9065 22.128 25.9065H11.7697L13.659 24.2344H21.596C21.6177 24.2344 21.6394 24.2344 21.672 24.2344C21.6829 24.2344 21.6937 24.2344 21.7046 24.2344C21.7154 24.2344 21.6829 24.2344 21.7263 24.2344C21.7697 24.2344 21.8051 24.2344 21.8566 24.2344C22.2806 24.2344 22.5624 23.8218 22.5624 23.4092C22.5624 23.0835 22.3778 22.8012 22.0955 22.6601C22.0846 22.6926 22.1063 22.6275 22.0955 22.6601C19.2842 22.6261 14.8968 22.5732 14.8968 22.5732C14.3322 22.5623 13.811 22.4212 13.3333 22.1823C12.7469 21.8892 12.2583 21.444 11.9 20.9011C11.8132 20.7708 11.7372 20.6405 11.672 20.4994C11.4766 20.1085 11.3571 19.685 11.3137 19.229C11.3029 19.1096 11.292 18.9793 11.292 18.8598C11.292 18.7513 11.292 18.6427 11.3028 18.545C11.3354 18.2084 11.4006 17.8826 11.52 17.5678L11.5743 17.4267L11.672 17.2203C11.9326 16.6991 12.3018 16.2431 12.7686 15.8957C12.9424 15.7654 13.1378 15.6459 13.3333 15.5374C13.8327 15.2876 14.3973 15.1465 14.9945 15.1465H15.0053H24.0607L22.1715 16.7317H15.0053C14.3213 16.7317 13.7241 17.0575 13.3441 17.5678C13.0835 17.9152 12.9315 18.3495 12.9315 18.8164C12.9315 18.9467 12.9424 19.0879 12.9749 19.2073C12.9749 19.2181 12.9749 19.2181 12.9749 19.229C13.0401 19.533 13.1704 19.8262 13.355 20.0651C13.735 20.5754 14.343 20.9011 15.0162 20.9011H21.3354C21.4549 20.9011 21.5634 20.9011 21.5634 20.9011H21.672C21.672 20.9011 21.7382 20.9001 21.7806 20.9011C22.3909 20.9149 22.8338 21.1291 23.2464 21.444C23.2898 21.4766 23.3224 21.4983 23.355 21.5309C23.6807 21.8023 23.9413 22.1606 24.0824 22.5732C24.115 22.6601 24.1476 22.7469 24.1584 22.8338C24.191 23.0401 24.2236 23.2355 24.2236 23.4527Z" fill="#FBFDFF"/>
<rect x="14.4976" y="8.49121" width="1.70688" height="2.53726" fill="#212121"/>
<rect x="14.4976" y="29.8018" width="1.70688" height="1.70688" fill="#212121"/>
<rect x="16.832" y="8.49121" width="1.70688" height="1.70688" fill="#212121"/>
<rect x="16.832" y="28.6406" width="1.70688" height="2.86759" fill="#212121"/>
</svg>
